# xmcd
#
# Track frame offsets: 
#        150
#        10732
#        21860
#        34572
#        45807
#        57650
#        67920
#        78650
#        93185
#        106822
#        116985
#        130390
#        142022
#        153677
#        164895
#        179215
#        190752
#        202465
#        213152
#        225592
#        240170
#        253000
#        263907
#        273612
#
# Disc length: 3794 seconds
#
# Revision: 0
# Processed by: cddbd v1.5.2PL0 Copyright (c) Steve Scherf et al.
# Submitted via: ExactAudioCopy v0.99pb3
#
DISCID=600ed018
DTITLE=Various Artist - The Ace Blues Masters - Vol. 3 - Tuff Enuff
DYEAR=1998
DGENRE=Blues
TTITLE0=Joe Dyson And Orchestra - Looped
TTITLE1=Al Collins And Orchestra - I Got The Blues For You (Take 4)
TTITLE2=Al Collins And Orchestra - Shuckin' Stuff (Take 1)
TTITLE3=Kenzie Moore - I Know I'll Die
TTITLE4=Junior Blackmon - I Can't Forget You Baby (Take 1)
TTITLE5=Junior Blackmon - Down South (Take 1)
TTITLE6=Jesse Allen - Baby Say You Will
TTITLE7=Jesse Allen - Goodbye Blues
TTITLE8=Schoolboy Cleve - Beautiful, Beautiful Love
TTITLE9=Schoolboy Cleve - My Baby Done Gone
TTITLE10=Lightnin' Slim - Bad Feeling Blues
TTITLE11=Lightnin' Slim - Lighnin' Slim Boogie
TTITLE12=Sammy Myers - Sleeping In The Ground
TTITLE13=Sammy Myers - My Love Is Here To Stay
TTITLE14=Buddy Guy - the Way You Been Treating Me
TTITLE15=Buddy Guy - Baby Don't You Wanna Come Home
TTITLE16=Little Cameron - Sittin' Here Worryin'
TTITLE17=Little Cameron - You Got The Wrong King Of Life
TTITLE18=Little Cameron - Annie Mae
TTITLE19=Guitar Reed - Don't You Say A Mumblin' Word
TTITLE20=Guitar Reed - Rockin' Blues
TTITLE21=Frankie Fair - Mean Mistreater
TTITLE22=Jerry McCain - Steady
TTITLE23=Jerry McCain - She's Tough
EXTD=
EXTT0=
EXTT1=
EXTT2=
EXTT3=
EXTT4=
EXTT5=
EXTT6=
EXTT7=
EXTT8=
EXTT9=
EXTT10=
EXTT11=
EXTT12=
EXTT13=
EXTT14=
EXTT15=
EXTT16=
EXTT17=
EXTT18=
EXTT19=
EXTT20=
EXTT21=
EXTT22=
EXTT23=
PLAYORDER=
